<svg width="111" height="109" viewBox="0 0 111 109" fill="none" xmlns="http://www.w3.org/2000/svg">
<path d="M110.043 16.7545H80.0003C79.5403 16.7545 79.168 16.3816 79.168 15.9222V3.76308C79.168 3.30309 79.5409 2.93073 80.0003 2.93073H110.043C110.503 2.93073 110.875 3.30368 110.875 3.76308V15.9222C110.875 16.3822 110.503 16.7545 110.043 16.7545Z" fill="#605EFD"/>
<path d="M83.2042 11.4431L83.3682 10.6854C83.5097 10.0223 83.6488 9.24444 83.7843 8.35171C83.7968 8.26646 83.8388 8.19009 83.9104 8.1226C83.9821 8.05512 84.0655 8.02137 84.1609 8.02137C84.2431 8.02137 84.31 8.04683 84.3615 8.09833C84.4131 8.14984 84.4385 8.21673 84.4385 8.29843C84.4385 8.36118 84.3988 8.6187 84.3195 9.07099L84.1348 10.0993C84.091 10.3325 84.0046 10.7375 83.8755 11.3129C84.2437 11.3082 84.731 11.214 85.3389 11.0305C85.378 11.021 85.4129 11.0157 85.4443 11.0157C85.539 11.0157 85.6089 11.0453 85.6521 11.1051C85.6959 11.1649 85.7178 11.2265 85.7178 11.291C85.7178 11.4372 85.6503 11.5485 85.5154 11.6255C85.3804 11.7018 85.1116 11.7776 84.7091 11.8522C84.3059 11.9268 83.9673 11.9647 83.6932 11.9647C83.3611 11.9647 83.1953 11.8327 83.1953 11.5692C83.1953 11.5296 83.1983 11.4881 83.2042 11.4431ZM86.1648 10.6007C86.1648 10.2627 86.269 9.88854 86.4768 9.47769C86.6846 9.06684 86.9658 8.73177 87.3198 8.47247C87.6732 8.21318 88.0468 8.08412 88.4398 8.08412C89.3888 8.08412 89.8636 8.47721 89.8636 9.26398C89.8636 9.89801 89.6463 10.4942 89.2112 11.0524C88.7767 11.6107 88.2557 11.8901 87.6495 11.8901C87.215 11.8901 86.8586 11.7693 86.581 11.5278C86.3039 11.2863 86.1648 10.9772 86.1648 10.6007ZM86.8385 10.4823C86.8385 10.7014 86.9243 10.8807 87.0954 11.0216C87.2671 11.1625 87.4849 11.233 87.7502 11.233C88.132 11.233 88.4671 11.0281 88.7566 10.6179C89.0455 10.2076 89.1899 9.78672 89.1899 9.35574C89.1899 9.13374 89.126 8.97627 88.9981 8.88273C88.8702 8.7892 88.6506 8.74243 88.3386 8.74243C88.0864 8.74243 87.8431 8.83596 87.6093 9.02244C87.3754 9.20892 87.1883 9.4475 87.048 9.73817C86.9089 10.0282 86.8385 10.2763 86.8385 10.4823ZM92.9923 10.3231C92.8206 10.7913 92.5507 11.1732 92.1819 11.468C91.8136 11.7634 91.4069 11.9108 90.9629 11.9108C90.2537 11.9108 89.8991 11.5787 89.8991 10.9139C89.8991 10.2751 90.146 9.62155 90.6403 8.95318C91.134 8.28481 91.6118 7.95033 92.0735 7.95033C92.234 7.95033 92.44 8.01012 92.691 8.1303C92.942 8.25048 93.0675 8.37835 93.0675 8.5151C93.0675 8.60212 93.0284 8.68441 92.9503 8.76255C92.8721 8.8407 92.7828 8.87977 92.6815 8.87977C92.6348 8.87977 92.5371 8.83537 92.3891 8.74716C92.2488 8.6554 92.1102 8.60982 91.9729 8.60982C91.8296 8.60982 91.6141 8.76966 91.3264 9.08875C91.0387 9.40784 90.8398 9.71982 90.7291 10.0241C90.6184 10.3284 90.5633 10.5995 90.5633 10.8375C90.5633 11.0127 90.6083 11.1258 90.6977 11.1767C90.7877 11.2276 90.9091 11.2525 91.0636 11.2525C91.3187 11.2525 91.5514 11.1738 91.7604 11.0157C91.9693 10.8582 92.1327 10.6522 92.2511 10.3977C91.8971 10.4219 91.5697 10.4977 91.269 10.6244C91.2288 10.6469 91.1778 10.6581 91.1169 10.6581C91.031 10.6581 90.9635 10.6285 90.9132 10.5699C90.8635 10.5113 90.8386 10.4474 90.8386 10.3781C90.8386 10.1626 91.0239 9.99983 91.3939 9.88972C91.7639 9.77961 92.263 9.72455 92.8911 9.72455C92.9787 9.72455 93.048 9.7512 93.1007 9.80388C93.1527 9.85716 93.1788 9.9211 93.1788 9.99687C93.1794 10.136 93.1172 10.2443 92.9923 10.3231ZM95.7481 10.6007C95.7481 10.2627 95.8523 9.88854 96.0601 9.47769C96.2679 9.06684 96.5491 8.73177 96.9031 8.47247C97.2565 8.21318 97.63 8.08412 98.0231 8.08412C98.9721 8.08412 99.4469 8.47721 99.4469 9.26398C99.4469 9.89801 99.2296 10.4942 98.7945 11.0524C98.36 11.6107 97.839 11.8901 97.2328 11.8901C96.7983 11.8901 96.4419 11.7693 96.1643 11.5278C95.8872 11.2863 95.7481 10.9772 95.7481 10.6007ZM96.4218 10.4823C96.4218 10.7014 96.5076 10.8807 96.6787 11.0216C96.8504 11.1625 97.0682 11.233 97.3335 11.233C97.7153 11.233 98.0504 11.0281 98.3399 10.6179C98.6287 10.2076 98.7732 9.78672 98.7732 9.35574C98.7732 9.13374 98.7093 8.97627 98.5814 8.88273C98.4535 8.7892 98.2339 8.74243 97.9219 8.74243C97.6697 8.74243 97.4264 8.83596 97.1926 9.02244C96.9587 9.20892 96.7716 9.4475 96.6313 9.73817C96.4916 10.0282 96.4218 10.2763 96.4218 10.4823ZM100.715 8.82708L100.647 9.24681C100.627 9.37409 100.605 9.49072 100.582 9.59668L100.546 9.79915C100.536 9.85894 100.526 9.90689 100.518 9.94419C100.487 10.1407 100.472 10.3083 100.472 10.4486C100.472 10.9873 100.7 11.2572 101.157 11.2572C101.44 11.2572 101.697 11.0684 101.928 10.6913C102.159 10.3142 102.352 9.60971 102.51 8.57844C102.53 8.46241 102.581 8.36296 102.663 8.27948C102.745 8.19601 102.841 8.15398 102.952 8.15398C103.121 8.15398 103.206 8.23745 103.206 8.40499C103.206 8.51569 103.126 8.93305 102.964 9.65647C102.803 10.3799 102.555 10.937 102.222 11.3289C101.888 11.7208 101.499 11.9161 101.055 11.9161C100.224 11.9161 99.8092 11.465 99.8092 10.5622C99.8092 10.3207 99.8512 9.97201 99.9353 9.51499L100.038 8.95969C100.057 8.86793 100.073 8.7738 100.087 8.67731C100.109 8.52635 100.158 8.3896 100.235 8.26705C100.311 8.1451 100.399 8.08353 100.499 8.08353C100.577 8.08353 100.644 8.10899 100.701 8.15931C100.758 8.21022 100.786 8.27415 100.786 8.35111C100.787 8.40972 100.763 8.56779 100.715 8.82708ZM105.438 8.78624L105.328 9.91577C105.291 10.3083 105.259 10.5906 105.232 10.7629C105.224 10.8002 105.217 10.8807 105.208 11.0045C105.189 11.307 105.132 11.5088 105.037 11.6101C104.941 11.7113 104.849 11.7622 104.762 11.7622C104.676 11.7622 104.606 11.735 104.552 11.6799C104.498 11.6255 104.472 11.5603 104.472 11.4846C104.472 11.4573 104.482 11.4082 104.503 11.3372C104.526 11.2567 104.541 11.1679 104.548 11.0708C104.555 10.9737 104.582 10.6866 104.629 10.2106L104.767 8.82767L104.516 8.83715C104.233 8.8484 104.008 8.83537 103.842 8.79748C103.676 8.7596 103.593 8.67553 103.593 8.54529C103.593 8.44051 103.628 8.34697 103.699 8.26409C103.77 8.18121 103.863 8.13977 103.976 8.13977L104.638 8.18299C104.755 8.18299 104.952 8.17411 105.23 8.15635C105.505 8.13859 105.694 8.12971 105.795 8.12971L106.529 8.14451C106.652 8.14451 106.731 8.14747 106.768 8.15398C106.803 8.16049 106.842 8.18595 106.882 8.22975C106.923 8.27415 106.943 8.33158 106.943 8.40203C106.943 8.50326 106.904 8.59443 106.826 8.67494C106.747 8.75545 106.663 8.79571 106.571 8.79571L105.566 8.78624H105.438Z" fill="white"/>
<path d="M56.1819 99.5048H0.638672V17.4406C0.638672 14.2183 3.25058 11.6064 6.47283 11.6064H50.3477C53.57 11.6064 56.1819 14.2183 56.1819 17.4406V99.5048Z" fill="#030047"/>
<path d="M66.4565 43.4525L74.8801 67.6091C75.0825 68.1898 75.23 68.7884 75.3199 69.3969L78.544 90.5189L64.5876 93.8933L60.8515 71.762L51.3066 44.9485L66.4565 43.4525Z" fill="#605EFD"/>
<path d="M58.5431 43.9694C58.5431 43.9694 55.1711 70.8911 53.4851 74.59C51.7991 78.2882 36.1483 91.2998 36.1483 91.2998L27.9941 80.8427L41.085 70.2388L45.1639 43.1536L58.5431 43.9694Z" fill="#605EFD"/>
<path d="M56.3228 60.2813C56.3121 60.2813 56.3015 60.2807 56.2908 60.279C56.1754 60.2612 56.0961 60.154 56.1138 60.0386C56.5329 57.2592 56.9764 54.1541 57.4304 50.8105C57.4464 50.6951 57.5512 50.6134 57.6684 50.6294C57.7844 50.6448 57.865 50.7513 57.8496 50.8673C57.3949 54.2133 56.9515 57.3201 56.5318 60.102C56.5158 60.2061 56.4258 60.2813 56.3228 60.2813Z" fill="#030047"/>
<path d="M94.8543 24.0497C94.6909 24.3398 94.457 24.6358 94.1303 24.9259C93.0901 25.8559 91.2389 28.0682 90.8305 28.5613L90.7997 28.5388L81.8214 39.5743C80.6522 40.8057 79.0905 41.5895 77.4057 41.7949C77.1126 41.8316 76.8196 41.8482 76.5265 41.8482C74.4978 41.8482 72.5471 41.0058 71.1524 39.492L62.3008 29.891L72.2908 26.0074L77.572 30.9447L84.6932 24.1728L84.6961 24.1699L92.4573 13.7288C92.8036 13.3256 93.3364 13.1936 93.81 13.3369C94.0071 13.3961 94.1906 13.5062 94.3452 13.6636C94.7507 14.0751 94.833 14.7038 94.5423 15.2023L92.4146 18.8886C92.4146 18.8886 93.5252 19.1171 93.6093 20.1881C93.6093 20.1881 93.6152 20.1881 93.6318 20.191C93.7869 20.1993 94.5873 20.3207 94.6885 21.5603C94.936 21.6403 95.573 22.7816 94.8543 24.0497Z" fill="white"/>
<path d="M76.5252 42.0602C74.4307 42.0602 72.4156 41.177 70.9954 39.636L62.1438 30.0349C62.0964 29.9834 62.0775 29.9118 62.0935 29.8437C62.1088 29.7757 62.1574 29.72 62.2225 29.6945L72.2125 25.811C72.2877 25.7814 72.3741 25.798 72.4333 25.8537L77.5689 30.6548L84.535 24.0309L92.2861 13.6034C92.6827 13.1416 93.3001 12.9628 93.8697 13.1357C94.1017 13.2056 94.3184 13.3376 94.4942 13.517C94.9654 13.9941 95.0596 14.7317 94.7233 15.3101L92.7277 18.7668C93.1427 18.9332 93.6707 19.315 93.7962 20.0023C94.0893 20.0651 94.7571 20.3321 94.8867 21.4361C95.0714 21.5853 95.1975 21.8766 95.2372 21.9772C95.3645 22.3017 95.5989 23.1624 95.0371 24.154C94.8512 24.4838 94.5931 24.7969 94.2693 25.0841C93.1971 26.0425 91.2139 28.4277 90.9919 28.6964C90.9635 28.7308 90.9262 28.7539 90.8866 28.7651L81.9835 39.7082C80.774 40.9822 79.1608 41.7938 77.4292 42.0052C77.138 42.0413 76.8337 42.0602 76.5252 42.0602ZM62.6647 29.9763L71.3062 39.3495C72.6459 40.8034 74.5485 41.637 76.5246 41.637C76.8153 41.637 77.1024 41.6192 77.3777 41.5849C79.0128 41.3854 80.5354 40.6193 81.6668 39.4282L90.6344 28.4046C90.6634 28.3691 90.7013 28.3454 90.7427 28.3341C91.2429 27.7327 92.9763 25.6731 93.9886 24.7679C94.2775 24.511 94.5066 24.2345 94.6694 23.9456V23.945C95.3224 22.793 94.7505 21.8387 94.6114 21.7576C94.5297 21.7316 94.483 21.6635 94.4765 21.5782C94.3865 20.4759 93.6968 20.4067 93.6186 20.4025C93.6139 20.4025 93.595 20.3996 93.5902 20.399C93.4801 20.399 93.4055 20.3149 93.3966 20.2048C93.3262 19.3097 92.4086 19.1043 92.3695 19.096C92.3032 19.0818 92.2476 19.0368 92.2203 18.9752C92.1931 18.9136 92.1961 18.842 92.2298 18.7834L94.3575 15.0976C94.5984 14.6832 94.5303 14.1551 94.1929 13.813C94.0644 13.6821 93.9146 13.5904 93.7471 13.5401C93.3368 13.4157 92.8928 13.5442 92.6152 13.8674L84.8636 24.2967C84.8582 24.3044 84.8517 24.3115 84.8452 24.318L77.7163 31.0988C77.6352 31.1757 77.508 31.1763 77.4263 31.1L72.2427 26.2533L62.6647 29.9763Z" fill="#030047"/>
<path d="M84.6955 24.1706L84.6926 24.1736L84.5996 24.1061L84.6955 24.1706Z" fill="white"/>
<path d="M84.693 24.3848C84.6498 24.3848 84.606 24.3718 84.5687 24.3445L84.4757 24.2771C84.3822 24.209 84.3609 24.0793 84.4272 23.9846C84.4941 23.8905 84.6237 23.8662 84.7184 23.9307L84.8144 23.9953C84.8664 24.0302 84.9002 24.0864 84.9061 24.1492C84.9126 24.2113 84.8907 24.2735 84.8475 24.3179L84.8445 24.3209C84.8031 24.3635 84.7486 24.3848 84.693 24.3848Z" fill="#030047"/>
<path d="M91.5548 23.8419C91.5548 23.8419 90.8349 26.1803 93.0543 25.226C93.0543 25.226 93.7334 24.988 94.854 24.0503C95.5721 22.7822 94.9369 21.6385 94.6877 21.5621L91.5548 23.8419Z" fill="white"/>
<path d="M92.161 25.6653C91.9082 25.6653 91.701 25.5948 91.5436 25.4533C91.006 24.9709 91.3157 23.8999 91.3524 23.7797C91.366 23.7359 91.3932 23.6981 91.4299 23.6708L94.5628 21.391C94.6166 21.352 94.6865 21.3407 94.7493 21.3597C95.0062 21.4384 95.1844 21.8433 95.2335 21.9659C95.3632 22.2909 95.6029 23.1558 95.0376 24.1545C95.0251 24.1764 95.0086 24.1965 94.9896 24.2125C93.8524 25.1638 93.1532 25.4154 93.1242 25.4255C92.753 25.5854 92.431 25.6653 92.161 25.6653ZM91.7383 23.9698C91.6637 24.2575 91.5625 24.9034 91.8265 25.1396C92.0166 25.3095 92.412 25.2722 92.9709 25.0318C92.9904 25.0247 93.6369 24.7873 94.6883 23.9129C95.2341 22.916 94.8724 22.0754 94.6812 21.8279L91.7383 23.9698Z" fill="#030047"/>
<path d="M90.2277 22.4791C90.2383 22.4785 90.2484 22.4791 90.2573 22.4779C91.269 22.4205 93.608 20.1887 93.608 20.1887C93.5257 19.1154 92.4151 18.8904 92.4151 18.8904L89.6996 20.9304C89.033 21.4283 89.3947 22.5063 90.2277 22.4791Z" fill="white"/>
<path d="M90.197 22.6913C89.7442 22.6913 89.3576 22.416 89.2049 21.9814C89.045 21.5268 89.1895 21.0473 89.5719 20.7607L92.2874 18.7213C92.3354 18.6852 92.3969 18.671 92.4561 18.6828C92.8948 18.7716 93.7437 19.1973 93.8177 20.1723C93.8225 20.2356 93.7988 20.2972 93.7526 20.341C93.5075 20.5749 91.3278 22.6285 90.2681 22.6883C90.2657 22.6883 90.2409 22.6895 90.2385 22.6895L90.2266 22.4787L90.2337 22.6901C90.2219 22.6907 90.2095 22.6913 90.197 22.6913ZM92.4591 19.1209L89.8253 21.0988C89.5435 21.3101 89.5299 21.631 89.6033 21.8411C89.6779 22.0549 89.8797 22.2792 90.2201 22.268C90.2272 22.268 90.2355 22.2674 90.2385 22.2674C90.982 22.2248 92.6923 20.7572 93.385 20.1072C93.2826 19.437 92.687 19.1908 92.4591 19.1209Z" fill="#030047"/>
<path d="M90.7364 23.6939C91.8245 24.5404 94.6874 21.5621 94.6874 21.5621C94.5867 20.3201 93.7864 20.2005 93.6324 20.1904C93.633 20.1904 89.6577 22.8544 90.7364 23.6939Z" fill="white"/>
<path d="M91.2065 24.0533C90.9833 24.0533 90.7796 23.9953 90.6068 23.8609C90.4244 23.7188 90.3321 23.5235 90.3404 23.2955C90.3812 22.1488 93.195 20.2302 93.5153 20.0153C93.5543 19.9892 93.5999 19.9768 93.6467 19.9798C93.7627 19.9874 94.7809 20.0952 94.8988 21.545C94.9035 21.6054 94.8822 21.6652 94.8401 21.7084C94.5773 21.9819 92.5414 24.0533 91.2065 24.0533ZM93.6857 20.4095C92.5408 21.1868 90.7873 22.6213 90.763 23.3103C90.7595 23.4033 90.7903 23.4684 90.8666 23.527C91.5332 24.0468 93.3986 22.5774 94.4678 21.4852C94.3665 20.6221 93.8864 20.4457 93.6857 20.4095Z" fill="#030047"/>
<path d="M84.459 24.4753L85.6755 18.9526C85.8958 18.0746 86.7702 17.5282 87.6552 17.7141L90.5773 18.3286C90.8769 18.3914 91.0509 18.7051 90.9455 18.9922C90.6904 19.6914 89.99 20.1259 89.25 20.043L87.7807 19.8791L87.9761 20.7126C88.2324 21.8072 88.0879 22.9575 87.5693 23.955L87.4237 24.2356" fill="white"/>
<path d="M84.4596 24.6874C84.4442 24.6874 84.4288 24.6856 84.414 24.6826C84.3003 24.6578 84.2281 24.5447 84.2529 24.431L85.4695 18.9083C85.7193 17.9102 86.6973 17.298 87.699 17.5088L90.6211 18.1233C90.8241 18.1659 90.9976 18.2944 91.0982 18.4749C91.1989 18.6561 91.2155 18.8716 91.1444 19.0663C90.8549 19.8596 90.0646 20.3486 89.2269 20.2551L88.0548 20.1242L88.1815 20.6665C88.449 21.8097 88.2981 23.0132 87.7564 24.0551L87.6114 24.3351C87.5575 24.4387 87.4308 24.479 87.326 24.4251C87.2224 24.3712 87.1822 24.244 87.236 24.1404L87.3817 23.8598C87.8772 22.9078 88.0151 21.8079 87.77 20.7624L87.5747 19.9289C87.5587 19.862 87.577 19.7915 87.6226 19.7406C87.6676 19.6891 87.7375 19.6631 87.8038 19.6708L89.2731 19.8348C89.9196 19.9064 90.524 19.5311 90.7466 18.9213C90.7756 18.8408 90.7691 18.7549 90.7277 18.6804C90.6862 18.6058 90.6169 18.5548 90.5329 18.5371L87.6108 17.9226C86.8335 17.7598 86.0728 18.2346 85.8792 19.0054L84.6644 24.5222C84.6443 24.6199 84.5566 24.6874 84.4596 24.6874Z" fill="#030047"/>
<path d="M62.6377 20.5749L66.9054 20.9881C68.0533 21.0994 69.1437 21.5434 70.0436 22.2651L75.4764 26.6269L68.3292 36.1244L59.9512 28.3502L62.6377 20.5749Z" fill="#E6F3FC"/>
<path d="M68.3298 36.3362C68.2765 36.3362 68.225 36.3161 68.1859 36.2799L59.8079 28.5052C59.7221 28.4259 59.7174 28.2921 59.7967 28.2062C59.876 28.1204 60.0104 28.1157 60.0951 28.195L68.3014 35.8105L75.1845 26.6641L69.9116 22.4307C69.8204 22.3573 69.8062 22.2247 69.879 22.1335C69.9524 22.0423 70.0857 22.0281 70.1762 22.101L75.609 26.4628C75.6978 26.5344 75.7144 26.6635 75.6457 26.7547L68.4985 36.2521C68.4624 36.3001 68.4079 36.3303 68.3481 36.3356C68.3422 36.3356 68.3363 36.3362 68.3298 36.3362Z" fill="#030047"/>
<path d="M69.2784 48.0203C69.1677 44.6874 68.8148 32.5981 68.6426 25.4835C68.5863 23.1504 66.8583 21.1986 64.5471 20.8511C61.8121 20.4396 58.3962 19.9856 56.7582 20.0081C55.0313 20.0312 51.3704 20.6291 48.5596 21.1352C46.3775 21.5283 44.7477 23.3582 44.6121 25.5681L43.0859 48.0203H69.2784Z" fill="#E6F3FC"/>
<path d="M68.9241 36.3362C68.8098 36.3362 68.7163 36.2456 68.7127 36.1307C68.6293 33.1548 68.512 28.8924 68.4298 25.489C68.4268 25.3723 68.5191 25.2752 68.6358 25.2723C68.7672 25.2693 68.8495 25.3617 68.8524 25.4783C68.9347 28.8811 69.0519 33.1423 69.1354 36.1183C69.139 36.2349 69.0466 36.332 68.93 36.3356C68.9282 36.3362 68.9264 36.3362 68.9241 36.3362Z" fill="#030047"/>
<path d="M38.1845 108.2L0.638672 99.5049V39.3778C0.638672 24.0403 8.266 11.0276 18.2542 10.2692C28.9469 9.45758 38.1839 22.8232 38.1839 40.1759V108.2H38.1845Z" fill="#FFCC3D"/>
<path d="M30.5474 67.4006C31.9576 67.4006 33.1007 66.1546 33.1007 64.6176C33.1007 63.0806 31.9576 61.8346 30.5474 61.8346C29.1373 61.8346 27.9941 63.0806 27.9941 64.6176C27.9941 66.1546 29.1373 67.4006 30.5474 67.4006Z" fill="#030047"/>
<path d="M55.0731 21.8808L53.6914 20.4742L54.4332 13.2572L60.3443 14.4891L60.5716 20.4417L60.1182 21.1112C59.1396 23.021 56.5774 23.4117 55.0731 21.8808Z" fill="white"/>
<path d="M57.3028 23.0352C56.4095 23.0352 55.5623 22.6824 54.9206 22.0288L53.5388 20.6222C53.495 20.5772 53.4731 20.515 53.4796 20.4523L54.2214 13.2352C54.2273 13.1754 54.2587 13.1216 54.3073 13.086C54.3552 13.0505 54.4168 13.0375 54.4754 13.0499L60.3865 14.2819C60.4812 14.3014 60.5511 14.3837 60.5546 14.4808L60.782 20.4333C60.7837 20.4783 60.7713 20.5227 60.7459 20.56L60.2924 21.2296C59.8075 22.1792 58.9024 22.8309 57.8237 22.9955C57.6491 23.0222 57.4751 23.0352 57.3028 23.0352ZM55.2225 21.7328C55.8915 22.4136 56.8168 22.7214 57.7598 22.5776C58.7035 22.4337 59.4944 21.8642 59.9295 21.0147L60.3569 20.3807L60.1385 14.6619L54.6187 13.5117L53.9106 20.3966L55.2225 21.7328Z" fill="#030047"/>
<path d="M54.4161 13.9616C52.8402 10.982 53.2842 7.45725 53.2842 7.45725L60.3225 4.47594C60.4729 4.60677 64.5914 6.47571 64.9449 11.6664C65.2343 15.9199 61.9493 18.0327 57.1382 16.5764" fill="white"/>
<path d="M59.9945 17.2473C59.0952 17.2473 58.1143 17.0916 57.0783 16.7779C56.967 16.7441 56.9037 16.6263 56.9374 16.5144C56.9711 16.4031 57.0872 16.3392 57.2008 16.3735C59.6837 17.1254 61.8113 16.9342 63.1919 15.8354C64.3256 14.9332 64.8589 13.4964 64.7352 11.6807C64.5316 8.69647 62.9717 6.22901 60.342 4.73362C60.3296 4.72652 60.3171 4.71941 60.3059 4.7129L53.4819 7.60304C53.4245 8.23826 53.2386 11.2823 54.6031 13.8629C54.6576 13.9659 54.6185 14.0937 54.5149 14.1488C54.4119 14.2033 54.2841 14.1636 54.229 14.0606C52.6401 11.0562 53.0557 7.57759 53.074 7.43077C53.0835 7.35618 53.132 7.29165 53.2013 7.26264L60.2402 4.28133C60.3148 4.24996 60.4 4.26358 60.461 4.31626C60.4675 4.31982 60.5018 4.33876 60.5504 4.36599C63.3073 5.93361 64.943 8.52124 65.1561 11.6517C65.2893 13.6124 64.7015 15.1735 63.4541 16.1663C62.5531 16.8838 61.3685 17.2473 59.9945 17.2473Z" fill="#030047"/>
<path d="M57.7222 3.00304C57.7222 3.00304 55.6721 1.87943 54.5283 2.55135C53.384 3.22386 54.3135 5.27395 54.3135 5.27395C54.3135 5.27395 52.5588 4.75418 51.4032 6.68824C50.2476 8.62231 53.1437 11.8617 53.1437 11.8617L55.1861 10.8701C55.1861 10.8701 55.2198 11.2407 55.8047 10.8044C56.3896 10.3675 56.2333 8.45654 56.9017 8.09542C56.9017 8.09542 62.3842 10.3065 65.243 6.28095C68.1017 2.25535 64.1898 0.031793 60.2832 0.437313C56.376 0.843425 57.7222 3.00304 57.7222 3.00304Z" fill="#030047"/>
<path d="M60.0863 10.2458C59.6914 10.1611 59.2711 10.3452 59.0195 10.7135L60.0863 10.2458Z" fill="white"/>
<path d="M59.0195 10.9248C58.9787 10.9248 58.9373 10.9129 58.9006 10.8881C58.8041 10.8223 58.7798 10.6903 58.8455 10.5944C59.1462 10.1546 59.6512 9.93671 60.1307 10.0397C60.245 10.064 60.3178 10.1765 60.2929 10.2907C60.2687 10.405 60.155 10.4772 60.0419 10.4529C59.7305 10.386 59.3972 10.5352 59.1942 10.833C59.1533 10.8928 59.087 10.9248 59.0195 10.9248ZM62.6657 10.6406C62.7444 10.9419 62.9735 11.1438 63.1778 11.0905C63.3802 11.0372 63.4809 10.7483 63.4003 10.4458C63.3198 10.1433 63.0901 9.94086 62.8883 9.99414C62.684 10.0486 62.5852 10.3381 62.6657 10.6406ZM59.5831 11.5108C59.6636 11.8134 59.8927 12.014 60.097 11.9608C60.2995 11.9075 60.3983 11.6186 60.3196 11.3161C60.2391 11.0136 60.0094 10.8111 59.8057 10.8662C59.6033 10.9188 59.5044 11.2077 59.5831 11.5108Z" fill="#030047"/>
<path d="M63.1683 9.37535C62.7735 9.2907 62.3532 9.47481 62.1016 9.84303L63.1683 9.37535Z" fill="white"/>
<path d="M62.1016 10.0546C62.0607 10.0546 62.0193 10.0427 61.9826 10.0179C61.8861 9.95215 61.8618 9.82014 61.9275 9.72423C62.2289 9.28438 62.7332 9.06652 63.2134 9.16953C63.3276 9.1938 63.4004 9.30628 63.3756 9.42054C63.3513 9.53479 63.2376 9.60702 63.1246 9.58274C62.8149 9.51585 62.4805 9.66503 62.2762 9.96281C62.2348 10.0226 62.1685 10.0546 62.1016 10.0546Z" fill="#030047"/>
<path d="M55.2761 10.9174C55.2761 10.9174 53.4137 9.30002 52.4635 9.71324C51.5133 10.1265 52.1219 13.5352 53.3018 13.7755C54.4816 14.0159 55.3809 13.4926 55.3809 13.4926" fill="white"/>
<path d="M53.933 14.0505C53.7222 14.0505 53.4967 14.0309 53.2599 13.9824C52.4689 13.8208 51.932 12.5634 51.8106 11.4042C51.7076 10.4233 51.9208 9.7188 52.3801 9.51929C53.4221 9.06582 55.2146 10.5831 55.4153 10.7578C55.5035 10.8341 55.513 10.9679 55.436 11.0561C55.3591 11.1443 55.2259 11.1532 55.1383 11.0774C54.6481 10.6518 53.2267 9.61342 52.5489 9.90765C52.2801 10.0243 52.1528 10.6086 52.2316 11.361C52.3488 12.4769 52.8484 13.4679 53.3457 13.5692C54.4344 13.7918 55.2673 13.3158 55.2756 13.3105C55.3774 13.2519 55.5065 13.2862 55.5651 13.3868C55.6237 13.4875 55.5894 13.6171 55.4887 13.6757C55.4556 13.6941 54.8304 14.0505 53.933 14.0505Z" fill="#030047"/>
<path d="M53.3323 12.3572C53.2577 12.3572 53.1849 12.3176 53.1464 12.2471C53.0215 12.0186 52.9428 11.7605 52.9191 11.5012C52.8972 11.265 52.9464 11.0915 53.0695 10.9708C53.1755 10.8678 53.3323 10.8174 53.4928 10.8364C53.6052 10.8494 53.7165 10.8938 53.8338 10.9714C53.977 11.0661 54.1019 11.1934 54.1955 11.3384C54.2582 11.4367 54.2304 11.5675 54.1321 11.6303C54.0339 11.6936 53.9036 11.6652 53.8403 11.5669C53.7781 11.4704 53.6952 11.3864 53.6005 11.323C53.5413 11.2833 53.4886 11.2608 53.4442 11.2555C53.4087 11.2514 53.3773 11.2609 53.3655 11.2727C53.3566 11.2816 53.3276 11.3218 53.3406 11.4615C53.3596 11.664 53.4205 11.8653 53.5182 12.0435C53.5739 12.1459 53.5366 12.2744 53.4342 12.3306C53.401 12.3489 53.3667 12.3572 53.3323 12.3572Z" fill="#030047"/>
<path d="M61.7553 11.4264C61.8945 11.8568 62.033 12.2872 62.1721 12.7176C62.2556 12.9769 62.3402 13.2468 62.2846 13.5061C62.2289 13.7654 61.991 14.0105 61.6719 14.0194" fill="white"/>
<path d="M61.6704 14.231C61.5561 14.231 61.462 14.1398 61.4591 14.025C61.4561 13.9084 61.5484 13.8113 61.6651 13.8083C61.8853 13.8024 62.0416 13.626 62.0765 13.462C62.1209 13.2536 62.0439 13.0145 61.9694 12.7824L61.5532 11.4912C61.5177 11.3799 61.5786 11.261 61.6893 11.2254C61.8012 11.1893 61.9196 11.2509 61.9557 11.3616L62.3719 12.6527C62.4548 12.9103 62.5584 13.2311 62.4903 13.5502C62.4199 13.8794 62.1174 14.2186 61.6763 14.2304C61.6745 14.231 61.6722 14.231 61.6704 14.231Z" fill="#030047"/>
<path d="M60.1772 15.2399C59.8889 15.2399 59.5988 15.1464 59.3667 14.9765C59.1039 14.7835 58.9121 14.4904 58.841 14.1719C58.8156 14.0583 58.8878 13.9452 59.0015 13.9197C59.1134 13.8943 59.2282 13.9659 59.2537 14.0802C59.3028 14.3004 59.4348 14.5029 59.6166 14.6355C59.7983 14.7687 60.0298 14.8338 60.2553 14.8137C60.3672 14.8036 60.4744 14.8894 60.4844 15.0055C60.4945 15.1215 60.4087 15.2245 60.2926 15.2346C60.2542 15.2381 60.2157 15.2399 60.1772 15.2399Z" fill="#030047"/>
<path d="M72.9045 52.3859C72.8565 52.5434 72.7606 52.676 72.6339 52.7719C72.451 52.9128 72.197 53.0057 71.9519 52.9495L68.1702 51.4363L70.6981 52.4593C71.0923 52.6002 71.2984 53.0537 71.1687 53.4539C71.1208 53.6119 71.0219 53.7416 70.8952 53.8369C70.8952 53.8369 70.8952 53.8398 70.8923 53.8428C70.6472 54.0287 70.3174 54.0601 70.0356 53.944L67.5557 52.9548L68.883 53.4929C69.2832 53.6368 69.4863 54.0903 69.3566 54.4934C69.3087 54.6509 69.2098 54.7811 69.0861 54.8764C68.9031 55.0203 68.6462 55.1132 68.4041 55.054L63.1033 52.9998L63.1003 53.0081L48.0825 47.2675C46.2733 46.5742 44.9627 44.9764 44.6388 43.0631L42.7734 31.9992L51.8671 30.4351L53.076 39.7206L64.3655 45.2073L69.2974 45.6892C69.819 45.6383 70.2671 46.0497 70.2529 46.5713C70.2446 46.8388 70.115 47.0786 69.9231 47.2308C69.8077 47.3154 69.681 47.3746 69.5372 47.4001L67.4012 47.5694L71.9217 49.4377C72.3136 49.5786 72.5274 50.0096 72.3977 50.4098C72.3527 50.5702 72.2509 50.6999 72.1301 50.7928C71.9442 50.9396 71.6903 51.0326 71.4452 50.9734L68.7907 49.8995L72.4285 51.4097C72.8228 51.5541 73.0341 51.9857 72.9045 52.3859Z" fill="white"/>
<path d="M68.5561 55.2838C68.4874 55.2838 68.4193 55.2761 68.3542 55.2601L63.0801 53.2183C63.0611 53.2171 63.0428 53.213 63.025 53.2065L48.0072 47.4658C46.1359 46.7489 44.7654 45.0753 44.4309 43.0992L42.5655 32.0353C42.546 31.9205 42.6235 31.8116 42.7378 31.792L51.8321 30.228C51.8883 30.2185 51.9469 30.2321 51.9931 30.2664C52.0393 30.3008 52.0701 30.3523 52.0772 30.4091L53.2712 39.5816L64.4239 45.0019L69.2985 45.4785C69.6039 45.4548 69.9017 45.559 70.1237 45.7662C70.3481 45.9758 70.4724 46.2718 70.4641 46.579C70.4534 46.9017 70.3043 47.2 70.0544 47.3983C69.9017 47.5108 69.7419 47.5801 69.5737 47.6097L68.295 47.7115L72.0021 49.2436C72.4899 49.4188 72.7617 49.9735 72.5989 50.4762C72.5473 50.6609 72.4284 50.8313 72.2585 50.9622C72.2146 50.9971 72.1685 51.0279 72.1223 51.0557L72.5101 51.2167C73.0056 51.3967 73.2708 51.9402 73.1068 52.4505C73.0464 52.647 72.9274 52.8169 72.7622 52.9418C72.5006 53.1425 72.188 53.2218 71.9056 53.1567C71.895 53.1544 71.8843 53.1508 71.8742 53.1467L71.3882 52.9525C71.4344 53.1336 71.4314 53.3302 71.3705 53.5202C71.3154 53.7002 71.2047 53.8624 71.0484 53.9873C71.0472 53.9885 71.0454 53.9903 71.0443 53.9914C71.0366 53.9991 71.0289 54.0057 71.0206 54.0122C70.7222 54.2383 70.3143 54.2874 69.9562 54.1406L69.5749 53.9885C69.6217 54.1708 69.6193 54.3685 69.5583 54.5592C69.5015 54.7468 69.3825 54.9161 69.2162 55.0446C69.0167 55.1997 68.781 55.2838 68.5561 55.2838ZM63.1227 52.7909C63.1422 52.7921 63.1612 52.7962 63.1795 52.8033L68.4803 54.8575C68.6354 54.8936 68.8326 54.8066 68.9551 54.7107C69.0534 54.6349 69.1214 54.539 69.154 54.4325C69.2523 54.1258 69.0984 53.7955 68.8112 53.6925L67.4757 53.1514C67.3679 53.1076 67.3158 52.9845 67.3591 52.8767C67.4023 52.7684 67.5248 52.7163 67.6337 52.7595L70.1136 53.7487C70.3274 53.8363 70.5659 53.8133 70.7435 53.6901C70.7512 53.6824 70.7589 53.6759 70.7672 53.6694C70.8649 53.596 70.933 53.5007 70.9655 53.3935C71.0626 53.094 70.9069 52.7595 70.6263 52.6594L68.0902 51.6335C67.9818 51.5897 67.9297 51.4666 67.9736 51.3588C68.0168 51.2505 68.1399 51.1984 68.2477 51.2416L72.0128 52.7482C72.1679 52.7784 72.349 52.7252 72.5041 52.6062C72.6 52.5339 72.6675 52.4374 72.7013 52.3262C72.7013 52.325 72.7019 52.3238 72.7025 52.3226C72.7978 52.0296 72.645 51.717 72.3549 51.611L68.7082 50.0973C68.6005 50.0529 68.5496 49.9297 68.5934 49.822C68.6378 49.7142 68.7615 49.6627 68.8681 49.706L71.5066 50.7733C71.6594 50.8047 71.8417 50.752 71.9974 50.6295C72.0672 50.5762 72.1554 50.4868 72.1927 50.3554C72.2886 50.0594 72.133 49.7415 71.8482 49.6391L67.3188 47.7672C67.2282 47.7299 67.1755 47.6357 67.1903 47.5386C67.2057 47.4422 67.2851 47.3687 67.3821 47.361L69.5181 47.1917C69.6033 47.1757 69.701 47.1325 69.7963 47.0627C69.9402 46.9484 70.0337 46.7613 70.0396 46.5672C70.045 46.3795 69.9716 46.2049 69.8336 46.0764C69.6951 45.9473 69.508 45.884 69.3162 45.9024C69.3032 45.9035 69.289 45.9035 69.2754 45.9024L64.3434 45.4205C64.3186 45.4181 64.2943 45.411 64.2718 45.4003L52.9823 39.9137C52.9184 39.8823 52.8746 39.8213 52.8651 39.7509L51.6853 30.6838L43.016 32.1751L44.8465 43.0312C45.1567 44.861 46.4253 46.4097 48.1575 47.0733L63.1227 52.7909Z" fill="#030047"/>
<path d="M49.8501 20.9081L46.7882 21.3947C43.8632 21.8594 41.7124 24.3855 41.7207 27.3473L41.7432 35.6572L54.2628 33.6426L49.8501 20.9081Z" fill="#E6F3FC"/>
<path d="M41.743 35.8684C41.6933 35.8684 41.6447 35.8506 41.6063 35.8181C41.5595 35.7778 41.5317 35.7192 41.5317 35.6576L41.5098 27.3477C41.5098 27.2311 41.6039 27.1364 41.7205 27.1358C41.8383 27.1447 41.9319 27.2299 41.9325 27.3465L41.9538 35.409L53.9802 33.4737L51.4554 26.1874C51.4169 26.0773 51.4755 25.9565 51.5862 25.9186C51.6963 25.8807 51.8171 25.9388 51.855 26.0489L54.4621 33.5732C54.4823 33.6324 54.4757 33.6975 54.4438 33.7508C54.4118 33.8047 54.3579 33.8414 54.2958 33.8508L41.7762 35.8654C41.7655 35.8672 41.7543 35.8684 41.743 35.8684Z" fill="#030047"/>
<path d="M80.2738 55.1446C80.1832 55.1446 80.0997 55.086 80.0719 54.9954C80.0376 54.8841 80.1003 54.7657 80.2116 54.7314C91.2524 51.3386 99.6884 40.9354 100.726 29.4323C100.737 29.3162 100.841 29.2298 100.956 29.2405C101.072 29.2511 101.158 29.3535 101.148 29.4701C100.095 41.1397 91.5366 51.6932 80.3359 55.1351C80.3152 55.1416 80.2939 55.1446 80.2738 55.1446Z" fill="#030047"/>
<path d="M102.104 30.5252L99.3763 30.5678C98.8844 30.5755 98.5996 30.0137 98.8956 29.6212L100.271 27.7996C100.507 27.4876 100.976 27.4865 101.213 27.7984L102.564 29.5774C102.858 29.9628 102.588 30.5175 102.104 30.5252Z" fill="#030047"/>
</svg>
